<mxfile host="app.diagrams.net" agent="Mozilla/5.0 (Windows NT 10.0; Win64; x64) AppleWebKit/537.36 (KHTML, like Gecko) Chrome/138.0.0.0 Safari/537.36 Edg/138.0.0.0" version="28.0.3">
  <diagram name="Page-1" id="JkvjtlhG64Bxaxvl3wHn">
    <mxGraphModel dx="2229" dy="760" grid="1" gridSize="10" guides="1" tooltips="1" connect="1" arrows="1" fold="1" page="1" pageScale="1" pageWidth="850" pageHeight="1100" math="0" shadow="0">
      <root>
        <mxCell id="0" />
        <mxCell id="1" parent="0" />
        <mxCell id="MQYgcTdJUZYXe-GcfLfp-1" value="ทบทวนสัญลักษณ์" style="swimlane;fontFamily=Sarabun;fontSource=https%3A%2F%2Ffonts.googleapis.com%2Fcss%3Ffamily%3DSarabun;" vertex="1" parent="1">
          <mxGeometry x="-720" y="20" width="640" height="290" as="geometry" />
        </mxCell>
        <mxCell id="MQYgcTdJUZYXe-GcfLfp-2" value="&lt;font data-font-src=&quot;https://fonts.googleapis.com/css?family=Sarabun&quot; face=&quot;Sarabun&quot;&gt;เริ่มต้น&lt;/font&gt;" style="ellipse;whiteSpace=wrap;html=1;" vertex="1" parent="MQYgcTdJUZYXe-GcfLfp-1">
          <mxGeometry x="20" y="40" width="130" height="30" as="geometry" />
        </mxCell>
        <mxCell id="MQYgcTdJUZYXe-GcfLfp-3" value="" style="endArrow=classic;html=1;rounded=0;" edge="1" parent="MQYgcTdJUZYXe-GcfLfp-1">
          <mxGeometry width="50" height="50" relative="1" as="geometry">
            <mxPoint x="84.5" y="70" as="sourcePoint" />
            <mxPoint x="84.5" y="120" as="targetPoint" />
          </mxGeometry>
        </mxCell>
        <mxCell id="MQYgcTdJUZYXe-GcfLfp-4" value="&lt;font face=&quot;Sarabun&quot;&gt;สิ้นสุด&lt;/font&gt;" style="ellipse;whiteSpace=wrap;html=1;" vertex="1" parent="MQYgcTdJUZYXe-GcfLfp-1">
          <mxGeometry x="150" y="90" width="130" height="30" as="geometry" />
        </mxCell>
        <mxCell id="MQYgcTdJUZYXe-GcfLfp-5" value="" style="endArrow=classic;html=1;rounded=0;" edge="1" parent="MQYgcTdJUZYXe-GcfLfp-1">
          <mxGeometry width="50" height="50" relative="1" as="geometry">
            <mxPoint x="214.5" y="40" as="sourcePoint" />
            <mxPoint x="214.5" y="90" as="targetPoint" />
          </mxGeometry>
        </mxCell>
        <mxCell id="MQYgcTdJUZYXe-GcfLfp-6" value="กระบวนการ" style="rounded=0;whiteSpace=wrap;html=1;fontFamily=Sarabun;fontSource=https%3A%2F%2Ffonts.googleapis.com%2Fcss%3Ffamily%3DSarabun;" vertex="1" parent="MQYgcTdJUZYXe-GcfLfp-1">
          <mxGeometry x="320" y="70" width="120" height="30" as="geometry" />
        </mxCell>
        <mxCell id="MQYgcTdJUZYXe-GcfLfp-7" value="" style="endArrow=classic;html=1;rounded=0;" edge="1" parent="MQYgcTdJUZYXe-GcfLfp-1">
          <mxGeometry width="50" height="50" relative="1" as="geometry">
            <mxPoint x="379" y="40" as="sourcePoint" />
            <mxPoint x="379.5" y="70" as="targetPoint" />
          </mxGeometry>
        </mxCell>
        <mxCell id="MQYgcTdJUZYXe-GcfLfp-8" value="" style="endArrow=classic;html=1;rounded=0;" edge="1" parent="MQYgcTdJUZYXe-GcfLfp-1">
          <mxGeometry width="50" height="50" relative="1" as="geometry">
            <mxPoint x="379.75" y="100" as="sourcePoint" />
            <mxPoint x="380.25" y="130" as="targetPoint" />
          </mxGeometry>
        </mxCell>
        <mxCell id="MQYgcTdJUZYXe-GcfLfp-9" value="ประโยคเงื่อนไข" style="rhombus;whiteSpace=wrap;html=1;fontFamily=Sarabun;fontSource=https%3A%2F%2Ffonts.googleapis.com%2Fcss%3Ffamily%3DSarabun;" vertex="1" parent="MQYgcTdJUZYXe-GcfLfp-1">
          <mxGeometry x="490" y="60" width="100" height="60" as="geometry" />
        </mxCell>
        <mxCell id="MQYgcTdJUZYXe-GcfLfp-10" value="" style="endArrow=classic;html=1;rounded=0;" edge="1" parent="MQYgcTdJUZYXe-GcfLfp-1">
          <mxGeometry width="50" height="50" relative="1" as="geometry">
            <mxPoint x="539.71" y="30" as="sourcePoint" />
            <mxPoint x="540.21" y="60" as="targetPoint" />
          </mxGeometry>
        </mxCell>
        <mxCell id="MQYgcTdJUZYXe-GcfLfp-11" value="" style="endArrow=classic;html=1;rounded=0;" edge="1" parent="MQYgcTdJUZYXe-GcfLfp-1">
          <mxGeometry width="50" height="50" relative="1" as="geometry">
            <mxPoint x="539.71" y="120" as="sourcePoint" />
            <mxPoint x="540" y="175" as="targetPoint" />
          </mxGeometry>
        </mxCell>
        <mxCell id="MQYgcTdJUZYXe-GcfLfp-12" value="จริง" style="edgeLabel;html=1;align=center;verticalAlign=middle;resizable=0;points=[];fontFamily=Sarabun;fontSource=https%3A%2F%2Ffonts.googleapis.com%2Fcss%3Ffamily%3DSarabun;" vertex="1" connectable="0" parent="MQYgcTdJUZYXe-GcfLfp-11">
          <mxGeometry x="-0.4142" y="-1" relative="1" as="geometry">
            <mxPoint as="offset" />
          </mxGeometry>
        </mxCell>
        <mxCell id="MQYgcTdJUZYXe-GcfLfp-13" value="" style="endArrow=classic;html=1;rounded=0;exitX=1;exitY=0.5;exitDx=0;exitDy=0;" edge="1" parent="MQYgcTdJUZYXe-GcfLfp-1" source="MQYgcTdJUZYXe-GcfLfp-9">
          <mxGeometry width="50" height="50" relative="1" as="geometry">
            <mxPoint x="620" y="95" as="sourcePoint" />
            <mxPoint x="610" y="175" as="targetPoint" />
            <Array as="points">
              <mxPoint x="610" y="90" />
            </Array>
          </mxGeometry>
        </mxCell>
        <mxCell id="MQYgcTdJUZYXe-GcfLfp-14" value="&lt;font data-font-src=&quot;https://fonts.googleapis.com/css?family=Sarabun&quot; face=&quot;Sarabun&quot;&gt;เท็จ&lt;/font&gt;" style="edgeLabel;html=1;align=center;verticalAlign=middle;resizable=0;points=[];" vertex="1" connectable="0" parent="MQYgcTdJUZYXe-GcfLfp-13">
          <mxGeometry x="-0.0019" y="-2" relative="1" as="geometry">
            <mxPoint as="offset" />
          </mxGeometry>
        </mxCell>
        <mxCell id="MQYgcTdJUZYXe-GcfLfp-15" value="&lt;font data-font-src=&quot;https://fonts.googleapis.com/css?family=Sarabun&quot; face=&quot;Sarabun&quot;&gt;ฟังก์ชัน/โมดูล&lt;/font&gt;" style="shape=process;whiteSpace=wrap;html=1;backgroundOutline=1;" vertex="1" parent="MQYgcTdJUZYXe-GcfLfp-1">
          <mxGeometry x="25" y="180" width="120" height="30" as="geometry" />
        </mxCell>
        <mxCell id="MQYgcTdJUZYXe-GcfLfp-16" value="" style="endArrow=classic;html=1;rounded=0;" edge="1" parent="MQYgcTdJUZYXe-GcfLfp-1">
          <mxGeometry width="50" height="50" relative="1" as="geometry">
            <mxPoint x="84.70999999999998" y="150" as="sourcePoint" />
            <mxPoint x="85.20999999999998" y="180" as="targetPoint" />
          </mxGeometry>
        </mxCell>
        <mxCell id="MQYgcTdJUZYXe-GcfLfp-17" value="" style="endArrow=classic;html=1;rounded=0;" edge="1" parent="MQYgcTdJUZYXe-GcfLfp-1">
          <mxGeometry width="50" height="50" relative="1" as="geometry">
            <mxPoint x="84.70999999999998" y="210" as="sourcePoint" />
            <mxPoint x="85.20999999999998" y="240" as="targetPoint" />
          </mxGeometry>
        </mxCell>
        <mxCell id="MQYgcTdJUZYXe-GcfLfp-18" value="" style="strokeWidth=2;html=1;shape=mxgraph.flowchart.start_2;whiteSpace=wrap;" vertex="1" parent="MQYgcTdJUZYXe-GcfLfp-1">
          <mxGeometry x="205" y="185" width="20" height="20" as="geometry" />
        </mxCell>
        <mxCell id="MQYgcTdJUZYXe-GcfLfp-19" value="" style="endArrow=classic;html=1;rounded=0;" edge="1" parent="MQYgcTdJUZYXe-GcfLfp-1">
          <mxGeometry width="50" height="50" relative="1" as="geometry">
            <mxPoint x="214.70999999999998" y="155" as="sourcePoint" />
            <mxPoint x="215.20999999999998" y="185" as="targetPoint" />
          </mxGeometry>
        </mxCell>
        <mxCell id="MQYgcTdJUZYXe-GcfLfp-20" value="" style="endArrow=classic;html=1;rounded=0;entryX=0;entryY=0.5;entryDx=0;entryDy=0;entryPerimeter=0;" edge="1" parent="MQYgcTdJUZYXe-GcfLfp-1" target="MQYgcTdJUZYXe-GcfLfp-18">
          <mxGeometry width="50" height="50" relative="1" as="geometry">
            <mxPoint x="189.99999999999997" y="155" as="sourcePoint" />
            <mxPoint x="190.49999999999997" y="185" as="targetPoint" />
            <Array as="points">
              <mxPoint x="190" y="180" />
            </Array>
          </mxGeometry>
        </mxCell>
        <mxCell id="MQYgcTdJUZYXe-GcfLfp-21" value="" style="endArrow=classic;html=1;rounded=0;entryX=1;entryY=0.5;entryDx=0;entryDy=0;entryPerimeter=0;" edge="1" parent="MQYgcTdJUZYXe-GcfLfp-1" target="MQYgcTdJUZYXe-GcfLfp-18">
          <mxGeometry width="50" height="50" relative="1" as="geometry">
            <mxPoint x="239.99999999999997" y="155" as="sourcePoint" />
            <mxPoint x="240.49999999999997" y="185" as="targetPoint" />
            <Array as="points">
              <mxPoint x="240" y="180" />
            </Array>
          </mxGeometry>
        </mxCell>
        <mxCell id="MQYgcTdJUZYXe-GcfLfp-22" value="" style="endArrow=classic;html=1;rounded=0;" edge="1" parent="MQYgcTdJUZYXe-GcfLfp-1">
          <mxGeometry width="50" height="50" relative="1" as="geometry">
            <mxPoint x="214.70999999999998" y="205" as="sourcePoint" />
            <mxPoint x="215.20999999999998" y="235" as="targetPoint" />
          </mxGeometry>
        </mxCell>
        <mxCell id="MQYgcTdJUZYXe-GcfLfp-23" value="&lt;font data-font-src=&quot;https://fonts.googleapis.com/css?family=Sarabun&quot; face=&quot;Sarabun&quot;&gt;ตัวเชื่อม&lt;/font&gt;" style="text;html=1;align=center;verticalAlign=middle;resizable=0;points=[];autosize=1;strokeColor=none;fillColor=none;" vertex="1" parent="MQYgcTdJUZYXe-GcfLfp-1">
          <mxGeometry x="220" y="190" width="60" height="30" as="geometry" />
        </mxCell>
        <mxCell id="MQYgcTdJUZYXe-GcfLfp-24" value="" style="endArrow=classic;html=1;rounded=0;" edge="1" parent="MQYgcTdJUZYXe-GcfLfp-1">
          <mxGeometry width="50" height="50" relative="1" as="geometry">
            <mxPoint x="353.71" y="165" as="sourcePoint" />
            <mxPoint x="354.21" y="195" as="targetPoint" />
          </mxGeometry>
        </mxCell>
        <mxCell id="MQYgcTdJUZYXe-GcfLfp-25" value="" style="verticalLabelPosition=bottom;verticalAlign=top;html=1;shape=offPageConnector;rounded=0;size=0.5;" vertex="1" parent="MQYgcTdJUZYXe-GcfLfp-1">
          <mxGeometry x="339" y="195" width="30" height="30" as="geometry" />
        </mxCell>
        <mxCell id="MQYgcTdJUZYXe-GcfLfp-26" value="" style="endArrow=classic;html=1;rounded=0;" edge="1" parent="MQYgcTdJUZYXe-GcfLfp-1">
          <mxGeometry width="50" height="50" relative="1" as="geometry">
            <mxPoint x="405.71" y="195" as="sourcePoint" />
            <mxPoint x="406.21" y="225" as="targetPoint" />
          </mxGeometry>
        </mxCell>
        <mxCell id="MQYgcTdJUZYXe-GcfLfp-27" value="" style="verticalLabelPosition=bottom;verticalAlign=top;html=1;shape=offPageConnector;rounded=0;size=0.5;" vertex="1" parent="MQYgcTdJUZYXe-GcfLfp-1">
          <mxGeometry x="391" y="165" width="30" height="30" as="geometry" />
        </mxCell>
        <mxCell id="MQYgcTdJUZYXe-GcfLfp-28" value="หน้าต่อไป" style="text;html=1;align=center;verticalAlign=middle;resizable=0;points=[];autosize=1;strokeColor=none;fillColor=none;fontFamily=Sarabun;fontSource=https%3A%2F%2Ffonts.googleapis.com%2Fcss%3Ffamily%3DSarabun;" vertex="1" parent="MQYgcTdJUZYXe-GcfLfp-1">
          <mxGeometry x="345" y="220" width="70" height="30" as="geometry" />
        </mxCell>
        <mxCell id="MQYgcTdJUZYXe-GcfLfp-29" value="ก" style="text;html=1;align=center;verticalAlign=middle;resizable=0;points=[];autosize=1;strokeColor=none;fillColor=none;fontFamily=Sarabun;fontSource=https%3A%2F%2Ffonts.googleapis.com%2Fcss%3Ffamily%3DSarabun;" vertex="1" parent="MQYgcTdJUZYXe-GcfLfp-1">
          <mxGeometry x="339" y="190" width="30" height="30" as="geometry" />
        </mxCell>
        <mxCell id="MQYgcTdJUZYXe-GcfLfp-30" value="ก" style="text;html=1;align=center;verticalAlign=middle;resizable=0;points=[];autosize=1;strokeColor=none;fillColor=none;fontFamily=Sarabun;fontSource=https%3A%2F%2Ffonts.googleapis.com%2Fcss%3Ffamily%3DSarabun;" vertex="1" parent="MQYgcTdJUZYXe-GcfLfp-1">
          <mxGeometry x="391" y="160" width="30" height="30" as="geometry" />
        </mxCell>
        <mxCell id="MQYgcTdJUZYXe-GcfLfp-31" value="แสดงผล/รับค่า" style="shape=parallelogram;perimeter=parallelogramPerimeter;whiteSpace=wrap;html=1;fixedSize=1;fontFamily=Sarabun;fontSource=https%3A%2F%2Ffonts.googleapis.com%2Fcss%3Ffamily%3DSarabun;" vertex="1" parent="MQYgcTdJUZYXe-GcfLfp-1">
          <mxGeometry x="450" y="210" width="120" height="30" as="geometry" />
        </mxCell>
        <mxCell id="MQYgcTdJUZYXe-GcfLfp-32" value="" style="endArrow=classic;html=1;rounded=0;" edge="1" parent="MQYgcTdJUZYXe-GcfLfp-1">
          <mxGeometry width="50" height="50" relative="1" as="geometry">
            <mxPoint x="509.71" y="180" as="sourcePoint" />
            <mxPoint x="510.21" y="210" as="targetPoint" />
          </mxGeometry>
        </mxCell>
        <mxCell id="MQYgcTdJUZYXe-GcfLfp-33" value="" style="endArrow=classic;html=1;rounded=0;" edge="1" parent="MQYgcTdJUZYXe-GcfLfp-1">
          <mxGeometry width="50" height="50" relative="1" as="geometry">
            <mxPoint x="509.71" y="240" as="sourcePoint" />
            <mxPoint x="510.21" y="270" as="targetPoint" />
          </mxGeometry>
        </mxCell>
        <mxCell id="MQYgcTdJUZYXe-GcfLfp-34" value="แก้ไขโจทย์ปัญหา" style="swimlane;fontFamily=Sarabun;fontSource=https%3A%2F%2Ffonts.googleapis.com%2Fcss%3Ffamily%3DSarabun;" vertex="1" parent="1">
          <mxGeometry x="-720" y="660" width="1060" height="1580" as="geometry" />
        </mxCell>
        <mxCell id="MQYgcTdJUZYXe-GcfLfp-35" value="" style="edgeStyle=orthogonalEdgeStyle;rounded=0;orthogonalLoop=1;jettySize=auto;html=1;" edge="1" parent="MQYgcTdJUZYXe-GcfLfp-34" source="MQYgcTdJUZYXe-GcfLfp-41" target="MQYgcTdJUZYXe-GcfLfp-38">
          <mxGeometry relative="1" as="geometry" />
        </mxCell>
        <mxCell id="MQYgcTdJUZYXe-GcfLfp-36" value="&lt;font data-font-src=&quot;https://fonts.googleapis.com/css?family=Sarabun&quot; face=&quot;Sarabun&quot;&gt;เริ่มต้น&lt;/font&gt;" style="ellipse;whiteSpace=wrap;html=1;" vertex="1" parent="MQYgcTdJUZYXe-GcfLfp-34">
          <mxGeometry x="340" y="40" width="130" height="30" as="geometry" />
        </mxCell>
        <mxCell id="MQYgcTdJUZYXe-GcfLfp-37" style="edgeStyle=orthogonalEdgeStyle;rounded=0;orthogonalLoop=1;jettySize=auto;html=1;entryX=0.5;entryY=0;entryDx=0;entryDy=0;" edge="1" parent="MQYgcTdJUZYXe-GcfLfp-34" source="MQYgcTdJUZYXe-GcfLfp-38" target="MQYgcTdJUZYXe-GcfLfp-40">
          <mxGeometry relative="1" as="geometry" />
        </mxCell>
        <mxCell id="MQYgcTdJUZYXe-GcfLfp-38" value="แสดงหน้าฟังก์ชั่นหลักของตู้ ตะพาบลอย" style="whiteSpace=wrap;html=1;" vertex="1" parent="MQYgcTdJUZYXe-GcfLfp-34">
          <mxGeometry x="345" y="160" width="120" height="35" as="geometry" />
        </mxCell>
        <mxCell id="MQYgcTdJUZYXe-GcfLfp-39" style="edgeStyle=orthogonalEdgeStyle;rounded=0;orthogonalLoop=1;jettySize=auto;html=1;entryX=1;entryY=0.5;entryDx=0;entryDy=0;" edge="1" parent="MQYgcTdJUZYXe-GcfLfp-34" source="MQYgcTdJUZYXe-GcfLfp-40" target="MQYgcTdJUZYXe-GcfLfp-41">
          <mxGeometry relative="1" as="geometry">
            <Array as="points">
              <mxPoint x="530" y="290" />
              <mxPoint x="530" y="110" />
            </Array>
          </mxGeometry>
        </mxCell>
        <mxCell id="MQYgcTdJUZYXe-GcfLfp-40" value="มีการตอบสนองของลูกค้าต่อตู้หรือไม่" style="rhombus;whiteSpace=wrap;html=1;" vertex="1" parent="MQYgcTdJUZYXe-GcfLfp-34">
          <mxGeometry x="347.5" y="240" width="115" height="100" as="geometry" />
        </mxCell>
        <mxCell id="MQYgcTdJUZYXe-GcfLfp-41" value="" style="ellipse;whiteSpace=wrap;html=1;aspect=fixed;" vertex="1" parent="MQYgcTdJUZYXe-GcfLfp-34">
          <mxGeometry x="385" y="90" width="40" height="40" as="geometry" />
        </mxCell>
        <mxCell id="MQYgcTdJUZYXe-GcfLfp-42" value="" style="edgeStyle=orthogonalEdgeStyle;rounded=0;orthogonalLoop=1;jettySize=auto;html=1;" edge="1" parent="MQYgcTdJUZYXe-GcfLfp-34" source="MQYgcTdJUZYXe-GcfLfp-36" target="MQYgcTdJUZYXe-GcfLfp-41">
          <mxGeometry relative="1" as="geometry">
            <mxPoint x="-315" y="710" as="sourcePoint" />
            <mxPoint x="-315" y="760" as="targetPoint" />
          </mxGeometry>
        </mxCell>
        <mxCell id="MQYgcTdJUZYXe-GcfLfp-43" value="N(ถ้าไม่มี)" style="text;strokeColor=none;fillColor=none;html=1;fontSize=8;fontStyle=1;verticalAlign=middle;align=center;" vertex="1" parent="MQYgcTdJUZYXe-GcfLfp-34">
          <mxGeometry x="440" y="250" width="100" height="40" as="geometry" />
        </mxCell>
        <mxCell id="MQYgcTdJUZYXe-GcfLfp-44" value="แสดงประเภทสินค้าขอตู้ตะพาบลอย" style="rounded=0;whiteSpace=wrap;html=1;" vertex="1" parent="MQYgcTdJUZYXe-GcfLfp-34">
          <mxGeometry x="347.5" y="380" width="115" height="50" as="geometry" />
        </mxCell>
        <mxCell id="MQYgcTdJUZYXe-GcfLfp-45" style="edgeStyle=orthogonalEdgeStyle;rounded=0;orthogonalLoop=1;jettySize=auto;html=1;" edge="1" parent="MQYgcTdJUZYXe-GcfLfp-34" source="MQYgcTdJUZYXe-GcfLfp-40" target="MQYgcTdJUZYXe-GcfLfp-44">
          <mxGeometry relative="1" as="geometry">
            <mxPoint x="405" y="400" as="targetPoint" />
          </mxGeometry>
        </mxCell>
        <mxCell id="MQYgcTdJUZYXe-GcfLfp-46" value="Y(ถ้ามี)" style="text;strokeColor=none;fillColor=none;html=1;fontSize=8;fontStyle=1;verticalAlign=middle;align=center;" vertex="1" parent="MQYgcTdJUZYXe-GcfLfp-34">
          <mxGeometry x="320" y="330" width="110" height="50" as="geometry" />
        </mxCell>
        <mxCell id="MQYgcTdJUZYXe-GcfLfp-47" style="edgeStyle=orthogonalEdgeStyle;rounded=0;orthogonalLoop=1;jettySize=auto;html=1;entryX=0.5;entryY=0;entryDx=0;entryDy=0;" edge="1" parent="MQYgcTdJUZYXe-GcfLfp-34" source="MQYgcTdJUZYXe-GcfLfp-48" target="MQYgcTdJUZYXe-GcfLfp-55">
          <mxGeometry relative="1" as="geometry">
            <mxPoint x="550" y="509.9999999999998" as="targetPoint" />
          </mxGeometry>
        </mxCell>
        <mxCell id="MQYgcTdJUZYXe-GcfLfp-48" value="ลูกค้าเลือกรายการไหน" style="rhombus;whiteSpace=wrap;html=1;" vertex="1" parent="MQYgcTdJUZYXe-GcfLfp-34">
          <mxGeometry x="365" y="508.9999999999998" width="80" height="80" as="geometry" />
        </mxCell>
        <mxCell id="MQYgcTdJUZYXe-GcfLfp-49" style="edgeStyle=orthogonalEdgeStyle;rounded=0;orthogonalLoop=1;jettySize=auto;html=1;" edge="1" parent="MQYgcTdJUZYXe-GcfLfp-34" source="MQYgcTdJUZYXe-GcfLfp-64" target="MQYgcTdJUZYXe-GcfLfp-48">
          <mxGeometry relative="1" as="geometry">
            <mxPoint x="405" y="479.9999999999998" as="targetPoint" />
          </mxGeometry>
        </mxCell>
        <mxCell id="MQYgcTdJUZYXe-GcfLfp-50" value="Y(ประเภทน้ำ)" style="text;strokeColor=none;fillColor=none;html=1;fontSize=8;fontStyle=1;verticalAlign=middle;align=center;" vertex="1" parent="MQYgcTdJUZYXe-GcfLfp-34">
          <mxGeometry x="260" y="509" width="110" height="50" as="geometry" />
        </mxCell>
        <mxCell id="MQYgcTdJUZYXe-GcfLfp-51" value="N(ประเถทขนม)" style="text;strokeColor=none;fillColor=none;html=1;fontSize=8;fontStyle=1;verticalAlign=middle;align=center;" vertex="1" parent="MQYgcTdJUZYXe-GcfLfp-34">
          <mxGeometry x="445" y="509" width="110" height="50" as="geometry" />
        </mxCell>
        <mxCell id="MQYgcTdJUZYXe-GcfLfp-52" style="edgeStyle=orthogonalEdgeStyle;rounded=0;orthogonalLoop=1;jettySize=auto;html=1;" edge="1" parent="MQYgcTdJUZYXe-GcfLfp-34" source="MQYgcTdJUZYXe-GcfLfp-53">
          <mxGeometry relative="1" as="geometry">
            <mxPoint x="240" y="670" as="targetPoint" />
            <Array as="points">
              <mxPoint x="240" y="660" />
            </Array>
          </mxGeometry>
        </mxCell>
        <mxCell id="MQYgcTdJUZYXe-GcfLfp-53" value="ลูกค้าเลือกซื้อสินค้าประเภทน้ำ" style="rounded=0;whiteSpace=wrap;html=1;" vertex="1" parent="MQYgcTdJUZYXe-GcfLfp-34">
          <mxGeometry x="175" y="570" width="120" height="30" as="geometry" />
        </mxCell>
        <mxCell id="MQYgcTdJUZYXe-GcfLfp-54" style="edgeStyle=orthogonalEdgeStyle;rounded=0;orthogonalLoop=1;jettySize=auto;html=1;entryX=0.5;entryY=0;entryDx=0;entryDy=0;" edge="1" parent="MQYgcTdJUZYXe-GcfLfp-34" source="MQYgcTdJUZYXe-GcfLfp-48" target="MQYgcTdJUZYXe-GcfLfp-53">
          <mxGeometry relative="1" as="geometry">
            <mxPoint x="260" y="510" as="targetPoint" />
          </mxGeometry>
        </mxCell>
        <mxCell id="MQYgcTdJUZYXe-GcfLfp-55" value="ลูกค้าเลือกซื้อสินค้าประเภทขนม" style="rounded=0;whiteSpace=wrap;html=1;" vertex="1" parent="MQYgcTdJUZYXe-GcfLfp-34">
          <mxGeometry x="500" y="570" width="120" height="30" as="geometry" />
        </mxCell>
        <mxCell id="MQYgcTdJUZYXe-GcfLfp-56" style="edgeStyle=orthogonalEdgeStyle;rounded=0;orthogonalLoop=1;jettySize=auto;html=1;entryX=0.5;entryY=0;entryDx=0;entryDy=0;" edge="1" parent="MQYgcTdJUZYXe-GcfLfp-34" source="MQYgcTdJUZYXe-GcfLfp-55" target="MQYgcTdJUZYXe-GcfLfp-61">
          <mxGeometry relative="1" as="geometry">
            <mxPoint x="585" y="669.9999999999998" as="targetPoint" />
            <Array as="points" />
          </mxGeometry>
        </mxCell>
        <mxCell id="MQYgcTdJUZYXe-GcfLfp-57" style="edgeStyle=orthogonalEdgeStyle;rounded=0;orthogonalLoop=1;jettySize=auto;html=1;entryX=0;entryY=0.5;entryDx=0;entryDy=0;" edge="1" parent="MQYgcTdJUZYXe-GcfLfp-34" source="MQYgcTdJUZYXe-GcfLfp-59" target="MQYgcTdJUZYXe-GcfLfp-64">
          <mxGeometry relative="1" as="geometry">
            <mxPoint x="110" y="489.9999999999998" as="targetPoint" />
            <Array as="points">
              <mxPoint x="120" y="725" />
              <mxPoint x="120" y="470" />
            </Array>
          </mxGeometry>
        </mxCell>
        <mxCell id="MQYgcTdJUZYXe-GcfLfp-58" style="edgeStyle=orthogonalEdgeStyle;rounded=0;orthogonalLoop=1;jettySize=auto;html=1;entryX=0;entryY=0.5;entryDx=0;entryDy=0;" edge="1" parent="MQYgcTdJUZYXe-GcfLfp-34" source="MQYgcTdJUZYXe-GcfLfp-59" target="MQYgcTdJUZYXe-GcfLfp-70">
          <mxGeometry relative="1" as="geometry">
            <Array as="points">
              <mxPoint x="240" y="870" />
            </Array>
          </mxGeometry>
        </mxCell>
        <mxCell id="MQYgcTdJUZYXe-GcfLfp-59" value="ลูกค้าต้องการเลือกสินค้าประเภทอื่นหรือไม่" style="rhombus;whiteSpace=wrap;html=1;" vertex="1" parent="MQYgcTdJUZYXe-GcfLfp-34">
          <mxGeometry x="175" y="670" width="130" height="110" as="geometry" />
        </mxCell>
        <mxCell id="MQYgcTdJUZYXe-GcfLfp-60" style="edgeStyle=orthogonalEdgeStyle;rounded=0;orthogonalLoop=1;jettySize=auto;html=1;entryX=1;entryY=0.5;entryDx=0;entryDy=0;" edge="1" parent="MQYgcTdJUZYXe-GcfLfp-34" source="MQYgcTdJUZYXe-GcfLfp-61" target="MQYgcTdJUZYXe-GcfLfp-64">
          <mxGeometry relative="1" as="geometry">
            <mxPoint x="690" y="500" as="targetPoint" />
            <Array as="points">
              <mxPoint x="690" y="725" />
              <mxPoint x="690" y="470" />
            </Array>
          </mxGeometry>
        </mxCell>
        <mxCell id="MQYgcTdJUZYXe-GcfLfp-61" value="ลูกค้าต้องการเลือกสินค้าประเภทอื่นหรือไม่" style="rhombus;whiteSpace=wrap;html=1;" vertex="1" parent="MQYgcTdJUZYXe-GcfLfp-34">
          <mxGeometry x="495" y="670" width="130" height="110" as="geometry" />
        </mxCell>
        <mxCell id="MQYgcTdJUZYXe-GcfLfp-62" value="Y(ต้องการ)" style="text;strokeColor=none;fillColor=none;html=1;fontSize=8;fontStyle=1;verticalAlign=middle;align=center;" vertex="1" parent="MQYgcTdJUZYXe-GcfLfp-34">
          <mxGeometry x="670" y="580" width="110" height="50" as="geometry" />
        </mxCell>
        <mxCell id="MQYgcTdJUZYXe-GcfLfp-63" value="Y(ต้องการ)" style="text;strokeColor=none;fillColor=none;html=1;fontSize=8;fontStyle=1;verticalAlign=middle;align=center;" vertex="1" parent="MQYgcTdJUZYXe-GcfLfp-34">
          <mxGeometry x="20" y="580" width="110" height="50" as="geometry" />
        </mxCell>
        <mxCell id="MQYgcTdJUZYXe-GcfLfp-64" value="" style="ellipse;whiteSpace=wrap;html=1;aspect=fixed;" vertex="1" parent="MQYgcTdJUZYXe-GcfLfp-34">
          <mxGeometry x="385" y="450" width="40" height="40" as="geometry" />
        </mxCell>
        <mxCell id="MQYgcTdJUZYXe-GcfLfp-65" value="" style="edgeStyle=orthogonalEdgeStyle;rounded=0;orthogonalLoop=1;jettySize=auto;html=1;" edge="1" parent="MQYgcTdJUZYXe-GcfLfp-34" source="MQYgcTdJUZYXe-GcfLfp-44" target="MQYgcTdJUZYXe-GcfLfp-64">
          <mxGeometry relative="1" as="geometry">
            <mxPoint x="-315" y="1130" as="targetPoint" />
            <mxPoint x="-315" y="1090" as="sourcePoint" />
          </mxGeometry>
        </mxCell>
        <mxCell id="MQYgcTdJUZYXe-GcfLfp-66" style="edgeStyle=orthogonalEdgeStyle;rounded=0;orthogonalLoop=1;jettySize=auto;html=1;" edge="1" parent="MQYgcTdJUZYXe-GcfLfp-34">
          <mxGeometry relative="1" as="geometry">
            <mxPoint x="410" y="930" as="targetPoint" />
            <mxPoint x="410" y="890" as="sourcePoint" />
          </mxGeometry>
        </mxCell>
        <mxCell id="MQYgcTdJUZYXe-GcfLfp-67" style="edgeStyle=orthogonalEdgeStyle;rounded=0;orthogonalLoop=1;jettySize=auto;html=1;" edge="1" parent="MQYgcTdJUZYXe-GcfLfp-34" source="MQYgcTdJUZYXe-GcfLfp-61" target="MQYgcTdJUZYXe-GcfLfp-70">
          <mxGeometry relative="1" as="geometry">
            <mxPoint x="470" y="859.9655172413795" as="targetPoint" />
            <Array as="points">
              <mxPoint x="560" y="870" />
            </Array>
          </mxGeometry>
        </mxCell>
        <mxCell id="MQYgcTdJUZYXe-GcfLfp-68" value="N(ไม่ต้องการ)" style="text;strokeColor=none;fillColor=none;html=1;fontSize=8;fontStyle=1;verticalAlign=middle;align=center;" vertex="1" parent="MQYgcTdJUZYXe-GcfLfp-34">
          <mxGeometry x="540" y="780" width="110" height="50" as="geometry" />
        </mxCell>
        <mxCell id="MQYgcTdJUZYXe-GcfLfp-69" value="N(ไม่ต้องการ)" style="text;strokeColor=none;fillColor=none;html=1;fontSize=8;fontStyle=1;verticalAlign=middle;align=center;" vertex="1" parent="MQYgcTdJUZYXe-GcfLfp-34">
          <mxGeometry x="140" y="780" width="110" height="50" as="geometry" />
        </mxCell>
        <mxCell id="MQYgcTdJUZYXe-GcfLfp-70" value="แสดงจำนวนเงินของสินค้าทั้งหมดที่ลูกค้าเลือก" style="shape=parallelogram;perimeter=parallelogramPerimeter;whiteSpace=wrap;html=1;fixedSize=1;" vertex="1" parent="MQYgcTdJUZYXe-GcfLfp-34">
          <mxGeometry x="304.38" y="850" width="211.25" height="40" as="geometry" />
        </mxCell>
        <mxCell id="MQYgcTdJUZYXe-GcfLfp-71" style="edgeStyle=orthogonalEdgeStyle;rounded=0;orthogonalLoop=1;jettySize=auto;html=1;entryX=0.5;entryY=0;entryDx=0;entryDy=0;" edge="1" parent="MQYgcTdJUZYXe-GcfLfp-34" source="MQYgcTdJUZYXe-GcfLfp-72" target="MQYgcTdJUZYXe-GcfLfp-75">
          <mxGeometry relative="1" as="geometry" />
        </mxCell>
        <mxCell id="MQYgcTdJUZYXe-GcfLfp-72" value="แสดงยอดธนบัตร และ เหรียญ ที่อยู๋ในตู้ว่ามีอยู่เท่าไหร่" style="shape=process;whiteSpace=wrap;html=1;backgroundOutline=1;" vertex="1" parent="MQYgcTdJUZYXe-GcfLfp-34">
          <mxGeometry x="350.01" y="930" width="120" height="60" as="geometry" />
        </mxCell>
        <mxCell id="MQYgcTdJUZYXe-GcfLfp-73" style="edgeStyle=orthogonalEdgeStyle;rounded=0;orthogonalLoop=1;jettySize=auto;html=1;" edge="1" parent="MQYgcTdJUZYXe-GcfLfp-34" source="MQYgcTdJUZYXe-GcfLfp-75">
          <mxGeometry relative="1" as="geometry">
            <mxPoint x="410.0049999999999" y="1190" as="targetPoint" />
          </mxGeometry>
        </mxCell>
        <mxCell id="MQYgcTdJUZYXe-GcfLfp-74" style="edgeStyle=orthogonalEdgeStyle;rounded=0;orthogonalLoop=1;jettySize=auto;html=1;" edge="1" parent="MQYgcTdJUZYXe-GcfLfp-34" source="MQYgcTdJUZYXe-GcfLfp-75">
          <mxGeometry relative="1" as="geometry">
            <mxPoint x="570" y="1080" as="targetPoint" />
          </mxGeometry>
        </mxCell>
        <mxCell id="MQYgcTdJUZYXe-GcfLfp-75" value="มีธนบัตรในตู้หรือเหรียญที่พอสำหรอบ&lt;div&gt;ทอนลูกค้าไหม&lt;/div&gt;" style="rhombus;whiteSpace=wrap;html=1;" vertex="1" parent="MQYgcTdJUZYXe-GcfLfp-34">
          <mxGeometry x="352.51" y="1020" width="114.99" height="120" as="geometry" />
        </mxCell>
        <mxCell id="MQYgcTdJUZYXe-GcfLfp-76" value="Y(ถ้ามีพอ)" style="text;strokeColor=none;fillColor=none;html=1;fontSize=10;fontStyle=1;verticalAlign=middle;align=center;" vertex="1" parent="MQYgcTdJUZYXe-GcfLfp-34">
          <mxGeometry x="385" y="1130" width="105" height="50" as="geometry" />
        </mxCell>
        <mxCell id="MQYgcTdJUZYXe-GcfLfp-77" value="N(ถ้ามีไม่พอ)" style="text;strokeColor=none;fillColor=none;html=1;fontSize=10;fontStyle=1;verticalAlign=middle;align=center;" vertex="1" parent="MQYgcTdJUZYXe-GcfLfp-34">
          <mxGeometry x="462.5" y="1040" width="105" height="50" as="geometry" />
        </mxCell>
        <mxCell id="MQYgcTdJUZYXe-GcfLfp-78" style="edgeStyle=orthogonalEdgeStyle;rounded=0;orthogonalLoop=1;jettySize=auto;html=1;" edge="1" parent="MQYgcTdJUZYXe-GcfLfp-34">
          <mxGeometry relative="1" as="geometry">
            <mxPoint x="430" y="100" as="targetPoint" />
            <mxPoint x="726.25" y="1080" as="sourcePoint" />
            <Array as="points">
              <mxPoint x="756" y="1080" />
              <mxPoint x="756" y="100" />
            </Array>
          </mxGeometry>
        </mxCell>
        <mxCell id="MQYgcTdJUZYXe-GcfLfp-79" value="แสดงข้อความบอกลูกค้าเรื่องจำนวน ธนบัตรและเหรียญในตู้ไม่พอ" style="rounded=0;whiteSpace=wrap;html=1;" vertex="1" parent="MQYgcTdJUZYXe-GcfLfp-34">
          <mxGeometry x="567.5" y="1055" width="162.5" height="50" as="geometry" />
        </mxCell>
        <mxCell id="MQYgcTdJUZYXe-GcfLfp-80" style="edgeStyle=orthogonalEdgeStyle;rounded=0;orthogonalLoop=1;jettySize=auto;html=1;" edge="1" parent="MQYgcTdJUZYXe-GcfLfp-34" source="MQYgcTdJUZYXe-GcfLfp-81">
          <mxGeometry relative="1" as="geometry">
            <mxPoint x="410.01" y="1280" as="targetPoint" />
          </mxGeometry>
        </mxCell>
        <mxCell id="MQYgcTdJUZYXe-GcfLfp-81" value="คำนวณจำนวนธนบัตรหรือเหรียญสำหรับการทอนลูกค้า" style="shape=process;whiteSpace=wrap;html=1;backgroundOutline=1;" vertex="1" parent="MQYgcTdJUZYXe-GcfLfp-34">
          <mxGeometry x="350.01" y="1190" width="120" height="60" as="geometry" />
        </mxCell>
        <mxCell id="MQYgcTdJUZYXe-GcfLfp-82" style="edgeStyle=orthogonalEdgeStyle;rounded=0;orthogonalLoop=1;jettySize=auto;html=1;" edge="1" parent="MQYgcTdJUZYXe-GcfLfp-34" source="MQYgcTdJUZYXe-GcfLfp-83" target="MQYgcTdJUZYXe-GcfLfp-85">
          <mxGeometry relative="1" as="geometry" />
        </mxCell>
        <mxCell id="MQYgcTdJUZYXe-GcfLfp-83" value="ทอนเงินลูกค้า ตามจำนวน" style="shape=parallelogram;perimeter=parallelogramPerimeter;whiteSpace=wrap;html=1;fixedSize=1;" vertex="1" parent="MQYgcTdJUZYXe-GcfLfp-34">
          <mxGeometry x="347.5" y="1280" width="120" height="60" as="geometry" />
        </mxCell>
        <mxCell id="MQYgcTdJUZYXe-GcfLfp-84" value="&lt;font face=&quot;Sarabun&quot;&gt;สิ้นสุด&lt;/font&gt;" style="ellipse;whiteSpace=wrap;html=1;" vertex="1" parent="MQYgcTdJUZYXe-GcfLfp-34">
          <mxGeometry x="342.5" y="1520" width="130" height="30" as="geometry" />
        </mxCell>
        <mxCell id="MQYgcTdJUZYXe-GcfLfp-85" value="จัดส่งสินค้าตามรายการที่ลูกค้าเลือกซื้อ" style="rounded=0;whiteSpace=wrap;html=1;" vertex="1" parent="MQYgcTdJUZYXe-GcfLfp-34">
          <mxGeometry x="346.25" y="1370" width="122.5" height="40" as="geometry" />
        </mxCell>
        <mxCell id="MQYgcTdJUZYXe-GcfLfp-86" value="กลับหน้าหลัก" style="rounded=0;whiteSpace=wrap;html=1;" vertex="1" parent="MQYgcTdJUZYXe-GcfLfp-34">
          <mxGeometry x="350.01" y="1440" width="121.25" height="40" as="geometry" />
        </mxCell>
        <mxCell id="MQYgcTdJUZYXe-GcfLfp-87" style="edgeStyle=orthogonalEdgeStyle;rounded=0;orthogonalLoop=1;jettySize=auto;html=1;entryX=0.478;entryY=-0.008;entryDx=0;entryDy=0;entryPerimeter=0;" edge="1" parent="MQYgcTdJUZYXe-GcfLfp-34" source="MQYgcTdJUZYXe-GcfLfp-85" target="MQYgcTdJUZYXe-GcfLfp-86">
          <mxGeometry relative="1" as="geometry" />
        </mxCell>
        <mxCell id="MQYgcTdJUZYXe-GcfLfp-88" style="edgeStyle=orthogonalEdgeStyle;rounded=0;orthogonalLoop=1;jettySize=auto;html=1;entryX=0.519;entryY=0.056;entryDx=0;entryDy=0;entryPerimeter=0;" edge="1" parent="MQYgcTdJUZYXe-GcfLfp-34" source="MQYgcTdJUZYXe-GcfLfp-86" target="MQYgcTdJUZYXe-GcfLfp-84">
          <mxGeometry relative="1" as="geometry" />
        </mxCell>
        <mxCell id="MQYgcTdJUZYXe-GcfLfp-92" value="" style="endArrow=none;html=1;rounded=0;" edge="1" parent="MQYgcTdJUZYXe-GcfLfp-34">
          <mxGeometry width="50" height="50" relative="1" as="geometry">
            <mxPoint x="710" y="1220" as="sourcePoint" />
            <mxPoint x="710" y="1180" as="targetPoint" />
            <Array as="points">
              <mxPoint x="710" y="1210" />
            </Array>
          </mxGeometry>
        </mxCell>
        <mxCell id="MQYgcTdJUZYXe-GcfLfp-93" value="" style="endArrow=none;html=1;rounded=0;" edge="1" parent="MQYgcTdJUZYXe-GcfLfp-34">
          <mxGeometry width="50" height="50" relative="1" as="geometry">
            <mxPoint x="710" y="1290" as="sourcePoint" />
            <mxPoint x="710" y="1210" as="targetPoint" />
            <Array as="points">
              <mxPoint x="710" y="1280" />
              <mxPoint x="710" y="1270" />
            </Array>
          </mxGeometry>
        </mxCell>
        <mxCell id="MQYgcTdJUZYXe-GcfLfp-95" value="ฟังก์ชั่นเพื่อ คำณวณจำนวณธนบัตรและเหรียญ&lt;div&gt;ที่ต้องทอนในตู้&lt;/div&gt;" style="rounded=0;whiteSpace=wrap;html=1;" vertex="1" parent="MQYgcTdJUZYXe-GcfLfp-34">
          <mxGeometry x="720" y="1200" width="260" height="60" as="geometry" />
        </mxCell>
        <mxCell id="MQYgcTdJUZYXe-GcfLfp-100" value="" style="endArrow=none;html=1;rounded=0;" edge="1" parent="MQYgcTdJUZYXe-GcfLfp-34">
          <mxGeometry width="50" height="50" relative="1" as="geometry">
            <mxPoint x="710" y="1290" as="sourcePoint" />
            <mxPoint x="780" y="1290" as="targetPoint" />
            <Array as="points">
              <mxPoint x="740" y="1290" />
            </Array>
          </mxGeometry>
        </mxCell>
        <mxCell id="MQYgcTdJUZYXe-GcfLfp-102" value="" style="endArrow=none;html=1;rounded=0;" edge="1" parent="MQYgcTdJUZYXe-GcfLfp-34">
          <mxGeometry width="50" height="50" relative="1" as="geometry">
            <mxPoint x="520" y="950" as="sourcePoint" />
            <mxPoint x="520" y="910" as="targetPoint" />
            <Array as="points">
              <mxPoint x="520" y="940" />
            </Array>
          </mxGeometry>
        </mxCell>
        <mxCell id="MQYgcTdJUZYXe-GcfLfp-103" value="" style="endArrow=none;html=1;rounded=0;" edge="1" parent="MQYgcTdJUZYXe-GcfLfp-34">
          <mxGeometry width="50" height="50" relative="1" as="geometry">
            <mxPoint x="520" y="1020" as="sourcePoint" />
            <mxPoint x="520" y="940" as="targetPoint" />
            <Array as="points">
              <mxPoint x="520" y="1010" />
              <mxPoint x="520" y="1000" />
            </Array>
          </mxGeometry>
        </mxCell>
        <mxCell id="MQYgcTdJUZYXe-GcfLfp-104" value="ฟังก์ชั้น เพื่อ คิดคำนวณจำนวนเงินว่าเพียงพอหรือไม่ที่อยู่ข้างในตู้เพื่อ ทอนให้ลูกค้า" style="rounded=0;whiteSpace=wrap;html=1;" vertex="1" parent="MQYgcTdJUZYXe-GcfLfp-34">
          <mxGeometry x="530" y="930" width="190" height="50" as="geometry" />
        </mxCell>
        <mxCell id="MQYgcTdJUZYXe-GcfLfp-105" value="" style="endArrow=none;html=1;rounded=0;" edge="1" parent="MQYgcTdJUZYXe-GcfLfp-34">
          <mxGeometry width="50" height="50" relative="1" as="geometry">
            <mxPoint x="520" y="1020" as="sourcePoint" />
            <mxPoint x="560" y="1020" as="targetPoint" />
            <Array as="points">
              <mxPoint x="550" y="1020" />
            </Array>
          </mxGeometry>
        </mxCell>
        <mxCell id="MQYgcTdJUZYXe-GcfLfp-106" value="" style="endArrow=none;html=1;rounded=0;" edge="1" parent="MQYgcTdJUZYXe-GcfLfp-34">
          <mxGeometry width="50" height="50" relative="1" as="geometry">
            <mxPoint x="520" y="910" as="sourcePoint" />
            <mxPoint x="560" y="910" as="targetPoint" />
          </mxGeometry>
        </mxCell>
        <mxCell id="MQYgcTdJUZYXe-GcfLfp-89" value="&lt;font data-font-src=&quot;https://fonts.googleapis.com/css?family=Sarabun&quot; face=&quot;Sarabun&quot;&gt;โจทย์ปัญหา&lt;/font&gt;" style="swimlane;whiteSpace=wrap;html=1;" vertex="1" parent="1">
          <mxGeometry x="-720" y="320" width="640" height="240" as="geometry" />
        </mxCell>
        <mxCell id="MQYgcTdJUZYXe-GcfLfp-90" value="&lt;font data-font-src=&quot;https://fonts.googleapis.com/css?family=Sarabun&quot; face=&quot;Sarabun&quot; style=&quot;font-size: 14px;&quot;&gt;จงเขียน Flowchart เพื่อแสดงขั้นตอนการทำงาน ของเครื่องขายน้ำอัตโนมัติที่ชื่อว่า &quot;ตะพาบลอย&quot;&lt;br&gt;โดยจะต้องมีสินค้าดังนี้&lt;br&gt;&lt;u&gt;ประเภทน้ำ&lt;span style=&quot;white-space: pre;&quot;&gt;&#x9;&lt;/span&gt;&lt;span style=&quot;white-space: pre;&quot;&gt;&#x9;&lt;/span&gt;&lt;span style=&quot;white-space: pre;&quot;&gt;&#x9;&lt;/span&gt;&lt;span style=&quot;white-space: pre;&quot;&gt;&#x9;&lt;/span&gt;&lt;span style=&quot;white-space: pre;&quot;&gt;&#x9;&lt;/span&gt;&lt;span style=&quot;white-space: pre;&quot;&gt;&#x9;&lt;span style=&quot;white-space: pre;&quot;&gt;&#x9;&lt;/span&gt;ข&lt;/span&gt;นม&lt;/u&gt;&lt;br&gt;&lt;span style=&quot;white-space: pre;&quot;&gt;&#x9;&lt;/span&gt;- โค้ก กระป๋องละ 10 บาท&lt;span style=&quot;white-space: pre;&quot;&gt;&#x9;&lt;/span&gt;&lt;span style=&quot;white-space: pre;&quot;&gt;&#x9;&lt;/span&gt;&lt;span style=&quot;white-space: pre;&quot;&gt;&#x9;&lt;/span&gt;&lt;span style=&quot;white-space: pre;&quot;&gt;&#x9;&lt;/span&gt;- เมล็ดทานตะวัน 13 บาท&lt;br&gt;&lt;span style=&quot;white-space: pre;&quot;&gt;&#x9;&lt;/span&gt;- น้ำเขียว กระป๋องละ 12 บาท&lt;span style=&quot;white-space: pre;&quot;&gt;&#x9;&lt;/span&gt;&lt;span style=&quot;white-space: pre;&quot;&gt;&#x9;&lt;/span&gt;&lt;span style=&quot;white-space: pre;&quot;&gt;&#x9;&lt;/span&gt;- ถั่วแปบ 20 บาท&lt;br&gt;&lt;span style=&quot;white-space: pre;&quot;&gt;&#x9;&lt;/span&gt;- อเมริกาโน่ 30 บาท&lt;span style=&quot;white-space: pre;&quot;&gt;&#x9;&lt;/span&gt;&lt;span style=&quot;white-space: pre;&quot;&gt;&#x9;&lt;/span&gt;&lt;span style=&quot;white-space: pre;&quot;&gt;&#x9;&lt;/span&gt;&lt;span style=&quot;white-space: pre;&quot;&gt;&#x9;&lt;/span&gt;&lt;span style=&quot;white-space: pre;&quot;&gt;&#x9;&lt;/span&gt;- จิ้นส้มหมก 15 บาท&lt;br&gt;&lt;span style=&quot;white-space: pre;&quot;&gt;&#x9;&lt;/span&gt;- ลาเต้ หวานเจี๊ยบ 35 บาท&lt;span style=&quot;white-space: pre;&quot;&gt;&#x9;&lt;/span&gt;&lt;br&gt;&lt;br&gt;&lt;u&gt;สิ่งที่ระบบควรจะทำได้&lt;/u&gt;&lt;br&gt;&lt;span style=&quot;white-space: pre;&quot;&gt;&#x9;&lt;/span&gt;- ลูกค้าเลือกสินค้า, ระบบจะต้องรวมยอดขาย และรวมรายการสินค้าทั้งหมดที่ลูกค้าเลือก&lt;br&gt;&lt;span style=&quot;white-space: pre;&quot;&gt;&#x9;&lt;/span&gt;- สรุปยอดว่าเหลือเงินในตู้อีกเท่าไหร่ เหลือเหรียญอะไรบ้าง? ธนบัตรอะไรบ้าง? อย่างละเท่าไหร่?&lt;br&gt;&lt;br&gt;&lt;br&gt;&lt;/font&gt;" style="text;html=1;align=left;verticalAlign=middle;resizable=0;points=[];autosize=1;strokeColor=none;fillColor=none;fontSize=14;" vertex="1" parent="MQYgcTdJUZYXe-GcfLfp-89">
          <mxGeometry x="25" y="30" width="580" height="240" as="geometry" />
        </mxCell>
        <mxCell id="MQYgcTdJUZYXe-GcfLfp-91" value="" style="endArrow=none;html=1;rounded=0;exitX=1;exitY=0.5;exitDx=0;exitDy=0;" edge="1" parent="1" source="MQYgcTdJUZYXe-GcfLfp-81">
          <mxGeometry width="50" height="50" relative="1" as="geometry">
            <mxPoint x="-10" y="1850" as="sourcePoint" />
            <mxPoint x="-10" y="1880" as="targetPoint" />
          </mxGeometry>
        </mxCell>
        <mxCell id="MQYgcTdJUZYXe-GcfLfp-98" value="" style="endArrow=none;html=1;rounded=0;" edge="1" parent="1">
          <mxGeometry width="50" height="50" relative="1" as="geometry">
            <mxPoint x="-10" y="1840" as="sourcePoint" />
            <mxPoint x="50" y="1840" as="targetPoint" />
          </mxGeometry>
        </mxCell>
        <mxCell id="MQYgcTdJUZYXe-GcfLfp-107" value="" style="endArrow=none;html=1;rounded=0;exitX=1;exitY=0.5;exitDx=0;exitDy=0;" edge="1" parent="1" source="MQYgcTdJUZYXe-GcfLfp-72">
          <mxGeometry width="50" height="50" relative="1" as="geometry">
            <mxPoint x="-30" y="1810" as="sourcePoint" />
            <mxPoint x="-200" y="1620" as="targetPoint" />
          </mxGeometry>
        </mxCell>
      </root>
    </mxGraphModel>
  </diagram>
</mxfile>
